# xmcd
#
# Track frame offsets:
# 150
# 18756
# 34374
# 50503
# 70452
# 80224
# 94063
# 109149
# 124920
# 134281
# 145938
# 161323
# 175699
# 187656
# 206875
#
# Disc length: 2974 seconds
#
#
# Revision: 0
# Processed by: cddbd v1.5.2PL0 Copyright (c) Steve Scherf et al.
# Submitted via: FreeRIP 2.95 
#
DISCID=d20b9c0f
DTITLE=Alabama - Songs Of Inspiration
DYEAR=2006
DGENRE=Gospel
TTITLE0=His Eye Is On The Sparrow
TTITLE1=In The Garden
TTITLE2=Amazing Grace
TTITLE3=How Great Thou Art
TTITLE4=I Need Thee
TTITLE5=Old Shep
TTITLE6=Jesus Loves Me
TTITLE7=Silent Night
TTITLE8=I Am The Man Thomas (Duet With Dr. Ralph Stanley)
TTITLE9=Rock Of Ages
TTITLE10=In The Sweet By And By
TTITLE11=The Old Rugged Cross
TTITLE12=What Will I Leave Behind
TTITLE13=One Big Heaven
TTITLE14=Rain
EXTD=
EXTT0=
EXTT1=
EXTT2=
EXTT3=
EXTT4=
EXTT5=
EXTT6=
EXTT7=
EXTT8=
EXTT9=
EXTT10=
EXTT11=
EXTT12=
EXTT13=
EXTT14=
PLAYORDER=
